<svg width="85" height="88" viewBox="0 0 85 88" fill="none" xmlns="http://www.w3.org/2000/svg">
<path fill-rule="evenodd" clip-rule="evenodd" d="M9.00001 59.9H76C80 59.9 83.3 63.2 83.3 67.2V79.1C83.3 83.1 80 86.4 76 86.4H9.00001C5.00001 86.4 1.70001 83.1 1.70001 79.1V67.3C1.70001 63.2 5.00001 59.9 9.00001 59.9Z" fill="#3924D2"/>
<path fill-rule="evenodd" clip-rule="evenodd" d="M8.20001 1.39999H10.8C20.5 18.1 34.4 42.1 38.7 49.6C40.4 52.1 44.5 52.1 46.2 49.6C50.2 42.7 64.3 18.4 74.2 1.39999H76.8C80.4 1.39999 83.3 4.29999 83.3 7.89999V49.8C83.3 53.4 80.4 56.3 76.8 56.3H8.20001C4.60001 56.3 1.70001 53.4 1.70001 49.8V7.99999C1.70001 4.39999 4.60001 1.39999 8.20001 1.39999Z" fill="#11DAB6"/>
<path fill-rule="evenodd" clip-rule="evenodd" d="M68 42.6C68 44.2 67.2 45 65.7 45C64.2 45 63.4 44.2 63.4 42.6V37.1C63.4 35.2 64.2 34.3 66 34.3H71.8C72.4 34.3 72.7 34.1 72.7 33.6C72.7 33.1 72.4 32.9 71.8 32.9H65.6C64.1 32.9 63.4 32.1 63.4 30.6C63.4 29 64.1 28.3 65.6 28.3H71.6C75.1 28.3 76.8 30.1 76.8 33.7C76.8 37.3 75.1 39.1 71.6 39.1H68V42.6Z" fill="white"/>
<path fill-rule="evenodd" clip-rule="evenodd" d="M49.3 33.6C49.3 37.1 47.7 38.9 44.4 39H43.9L45.9 40.9C47 42.1 47.1 43.2 46.2 44.3C45.2 45.4 44.1 45.4 42.6 44.3L37.7 39.5C36.5 38.5 35.9 37.7 35.9 37.1C35.9 35.2 36.8 34.3 38.5 34.3H44.3C44.9 34.3 45.2 34.1 45.2 33.6C45.2 33.1 44.9 32.9 44.3 32.9H38.1C36.6 32.9 35.9 32.1 35.9 30.6C35.9 29 36.6 28.3 38.1 28.3H44.1C47.6 28.2 49.3 30 49.3 33.6Z" fill="#11DAB6"/>
<path fill-rule="evenodd" clip-rule="evenodd" d="M21.4 39.6C21.4 43.2 19.7 45 16.2 45H10.2C8.70001 45 7.90001 44.2 8.00001 42.7C8.00001 41.1 8.80001 40.4 10.2 40.4H16.4C17 40.4 17.3 40.2 17.3 39.7C17.3 39.2 17 39 16.4 39H12.6C9.30001 38.9 7.70001 37.1 7.70001 33.6C7.70001 30 9.50001 28.2 13 28.2H18.1C19.6 28.2 20.4 29 20.3 30.5C20.3 32.1 19.5 32.8 18.1 32.8H12.7C12.1 32.8 11.8 33 11.8 33.5C11.8 34 12.1 34.2 12.7 34.2H16.5C19.8 34.4 21.4 36.1 21.4 39.6Z" fill="white"/>
<path fill-rule="evenodd" clip-rule="evenodd" d="M68.7 77.4C68.7 78.5 68.1 79.1 67 79.1C65.9 79.1 65.3 78.5 65.4 77.4V73.4C65.4 72 66 71.4 67.3 71.4H71.5C71.9 71.4 72.2 71.2 72.2 70.9C72.2 70.6 72 70.4 71.5 70.4H67C65.9 70.4 65.4 69.8 65.4 68.7C65.4 67.6 65.9 67 67 67H71.3C73.8 67 75.1 68.3 75.1 70.9C75.1 73.5 73.9 74.8 71.4 74.8H68.8V77.4H68.7ZM59.1 75.7C59.4 75.7 59.5 75.6 59.5 75.3V68.7C59.5 67.5 60 66.9 61.1 66.9C62.2 66.9 62.8 67.5 62.8 68.7V78C62.8 78.7 62.4 79.1 61.8 79.1H52.3C51.6 79.1 51.3 78.7 51.2 78V68.7C51.2 67.5 51.8 66.9 52.9 66.9C54 66.9 54.6 67.5 54.6 68.7V75.2C54.6 75.5 54.7 75.6 55 75.6H59.1V75.7ZM44.6 70.4H40.7C40.4 70.4 40.2 70.5 40.2 70.8V75.1C40.2 75.4 40.4 75.6 40.7 75.6H44.6C44.9 75.6 45.1 75.4 45.1 75.1V70.8C45.1 70.6 45 70.4 44.6 70.4ZM48.5 75.2C48.5 77.8 47.2 79.1 44.8 79.1H40.7C38.2 79.1 37 77.8 37 75.2V70.9C37 68.3 38.3 67 40.7 67H44.8C47.3 67 48.5 68.3 48.5 70.9V75.2ZM34.3 70.9C34.3 73.4 33.1 74.7 30.7 74.8H30.4L31.8 76.2C32.6 77 32.7 77.9 32 78.7C31.3 79.5 30.5 79.5 29.4 78.7L25.9 75.2C25 74.5 24.6 73.9 24.6 73.5C24.6 72.2 25.2 71.5 26.5 71.5H30.7C31.1 71.5 31.4 71.3 31.4 71C31.4 70.7 31.2 70.5 30.7 70.5H26.2C25.1 70.5 24.6 69.9 24.6 68.8C24.6 67.7 25.1 67.1 26.2 67.1H30.5C33 67 34.3 68.3 34.3 70.9ZM21.4 77.5C21.4 78 21.2 78.5 20.9 78.7C20.6 79 20 79.1 19.3 79.1H13.8C11.3 79.1 10.1 77.8 10.1 75.2V70.9C10.1 68.3 11.4 67 13.8 67H19.3C20.7 67 21.4 67.6 21.4 68.7C21.4 69.8 20.7 70.4 19.3 70.4H13.9C13.6 70.4 13.4 70.5 13.4 70.8V75.1C13.4 75.4 13.6 75.6 13.9 75.6H18V73.3C18 72.8 18.2 72.3 18.5 72.1C18.8 71.8 19.2 71.7 19.7 71.7C20.1 71.7 20.5 71.8 20.9 72.1C21.2 72.4 21.4 72.8 21.4 73.3V77.5Z" fill="white"/>
</svg>
